<svg xmlns="http://www.w3.org/2000/svg" width="1200" height="700" viewBox="0 0 1200 700">
  <rect width="1200" height="700" fill="#f8fafc"/>
  <text x="70" y="90" font-family="Segoe UI" font-size="42" fill="#0f172a" font-weight="700">DNS resolution</text>
  <rect x="90" y="180" width="190" height="90" rx="12" fill="#dbeafe"/><text x="120" y="235" font-family="Segoe UI" font-size="26" fill="#1e3a8a">Klient</text>
  <rect x="340" y="180" width="230" height="90" rx="12" fill="#e0e7ff"/><text x="370" y="235" font-family="Segoe UI" font-size="26" fill="#3730a3">Resolver</text>
  <rect x="630" y="180" width="180" height="90" rx="12" fill="#fef9c3"/><text x="655" y="235" font-family="Segoe UI" font-size="26" fill="#854d0e">Root</text>
  <rect x="860" y="180" width="180" height="90" rx="12" fill="#ffedd5"/><text x="900" y="235" font-family="Segoe UI" font-size="26" fill="#9a3412">TLD</text>
  <rect x="1060" y="180" width="120" height="90" rx="12" fill="#dcfce7"/><text x="1075" y="235" font-family="Segoe UI" font-size="24" fill="#166534">Auth</text>
  <line x1="280" y1="225" x2="340" y2="225" stroke="#334155" stroke-width="4" marker-end="url(#a)"/>
  <line x1="570" y1="225" x2="630" y2="225" stroke="#334155" stroke-width="4" marker-end="url(#a)"/>
  <line x1="810" y1="225" x2="860" y2="225" stroke="#334155" stroke-width="4" marker-end="url(#a)"/>
  <line x1="1040" y1="225" x2="1060" y2="225" stroke="#334155" stroke-width="4" marker-end="url(#a)"/>
  <text x="120" y="360" font-family="Segoe UI" font-size="26" fill="#334155">Dotaz jde iterative/recursive pres resolver az k autoritativnimu serveru.</text>
  <defs><marker id="a" markerWidth="10" markerHeight="10" refX="8" refY="3" orient="auto"><polygon points="0 0, 10 3, 0 6" fill="#334155"/></marker></defs>
</svg>
