<svg xmlns="http://www.w3.org/2000/svg" width="1200" height="700" viewBox="0 0 1200 700">
  <rect width="1200" height="700" fill="#f8fafc"/>
  <text x="80" y="90" font-family="Segoe UI" font-size="42" fill="#0f172a" font-weight="700">Rekurze: strom volani</text>
  <circle cx="600" cy="170" r="55" fill="#dbeafe"/><text x="562" y="182" font-family="Segoe UI" font-size="30" fill="#1e3a8a" font-weight="700">f(4)</text>
  <circle cx="360" cy="330" r="50" fill="#e0e7ff"/><text x="325" y="341" font-family="Segoe UI" font-size="28" fill="#3730a3" font-weight="700">f(3)</text>
  <circle cx="840" cy="330" r="50" fill="#e0e7ff"/><text x="805" y="341" font-family="Segoe UI" font-size="28" fill="#3730a3" font-weight="700">f(2)</text>
  <circle cx="240" cy="500" r="45" fill="#dcfce7"/><text x="208" y="510" font-family="Segoe UI" font-size="26" fill="#166534" font-weight="700">f(2)</text>
  <circle cx="480" cy="500" r="45" fill="#dcfce7"/><text x="448" y="510" font-family="Segoe UI" font-size="26" fill="#166534" font-weight="700">f(1)</text>
  <circle cx="720" cy="500" r="45" fill="#dcfce7"/><text x="688" y="510" font-family="Segoe UI" font-size="26" fill="#166534" font-weight="700">f(1)</text>
  <circle cx="960" cy="500" r="45" fill="#dcfce7"/><text x="928" y="510" font-family="Segoe UI" font-size="26" fill="#166534" font-weight="700">f(0)</text>
  <line x1="560" y1="210" x2="400" y2="290" stroke="#334155" stroke-width="4"/>
  <line x1="640" y1="210" x2="800" y2="290" stroke="#334155" stroke-width="4"/>
  <line x1="330" y1="375" x2="265" y2="458" stroke="#334155" stroke-width="4"/>
  <line x1="390" y1="375" x2="455" y2="458" stroke="#334155" stroke-width="4"/>
  <line x1="810" y1="375" x2="745" y2="458" stroke="#334155" stroke-width="4"/>
  <line x1="870" y1="375" x2="935" y2="458" stroke="#334155" stroke-width="4"/>
</svg>
